{"asset":{"version":"2.0","generator":"THREE.GLTFExporter r175"},"scenes":[{"name":"AuxScene","nodes":[8]}],"scene":0,"nodes":[{"matrix":[1,0,0,0,0,1,0,0,0,0,1,0,-27.93642817133069,0,0,1],"mesh":0},{"matrix":[1,0,0,0,0,1,0,0,0,0,1,0,-18.903954146939515,0,0,1],"mesh":1},{"matrix":[1,0,0,0,0,1,0,0,0,0,1,0,-11.327854171735048,0,0,1],"mesh":2},{"matrix":[1,0,0,0,0,1,0,0,0,0,1,0,-7.711754085665941,0,0,1],"mesh":3},{"matrix":[1,0,0,0,0,1,0,0,0,0,1,0,-0.24309701845049858,0,0,1],"mesh":4},{"matrix":[1,0,0,0,0,1,0,0,0,0,1,0,7.412972482091188,0,0,1],"mesh":5},{"matrix":[1,0,0,0,0,1,0,0,0,0,1,0,15.144751385194063,0,0,1],"mesh":6},{"matrix":[1,0,0,0,0,1,0,0,0,0,1,0,20.87093767388463,0,0,1],"mesh":7},{"children":[0,1,2,3,4,5,6,7]}],"bufferViews":[{"buffer":0,"byteOffset":0,"byteLength":74880,"target":34962,"byteStride":12},{"buffer":0,"byteOffset":74880,"byteLength":49920,"target":34962,"byteStride":8},{"buffer":0,"byteOffset":124800,"byteLength":74880,"target":34962,"byteStride":12},{"buffer":0,"byteOffset":199680,"byteLength":60048,"target":34962,"byteStride":12},{"buffer":0,"byteOffset":259728,"byteLength":40032,"target":34962,"byteStride":8},{"buffer":0,"byteOffset":299760,"byteLength":60048,"target":34962,"byteStride":12},{"buffer":0,"byteOffset":359808,"byteLength":10944,"target":34962,"byteStride":12},{"buffer":0,"byteOffset":370752,"byteLength":7296,"target":34962,"byteStride":8},{"buffer":0,"byteOffset":378048,"byteLength":10944,"target":34962,"byteStride":12},{"buffer":0,"byteOffset":388992,"byteLength":117792,"target":34962,"byteStride":12},{"buffer":0,"byteOffset":506784,"byteLength":78528,"target":34962,"byteStride":8},{"buffer":0,"byteOffset":585312,"byteLength":117792,"target":34962,"byteStride":12},{"buffer":0,"byteOffset":703104,"byteLength":31824,"target":34962,"byteStride":12},{"buffer":0,"byteOffset":734928,"byteLength":21216,"target":34962,"byteStride":8},{"buffer":0,"byteOffset":756144,"byteLength":31824,"target":34962,"byteStride":12},{"buffer":0,"byteOffset":787968,"byteLength":122256,"target":34962,"byteStride":12},{"buffer":0,"byteOffset":910224,"byteLength":81504,"target":34962,"byteStride":8},{"buffer":0,"byteOffset":991728,"byteLength":122256,"target":34962,"byteStride":12},{"buffer":0,"byteOffset":1113984,"byteLength":42768,"target":34962,"byteStride":12},{"buffer":0,"byteOffset":1156752,"byteLength":28512,"target":34962,"byteStride":8},{"buffer":0,"byteOffset":1185264,"byteLength":42768,"target":34962,"byteStride":12},{"buffer":0,"byteOffset":1228032,"byteLength":57168,"target":34962,"byteStride":12},{"buffer":0,"byteOffset":1285200,"byteLength":38112,"target":34962,"byteStride":8},{"buffer":0,"byteOffset":1323312,"byteLength":57168,"target":34962,"byteStride":12}],"buffers":[{"byteLength":1380480,"uri":"data:application/octet-stream;base64,"}],"accessors":[{"bufferView":0,"componentType":5126,"count":6240,"max":[8.7083740234375,8.96399974822998,3.5],"min":[0.6759999990463257,-0.30000001192092896,-0.5],"type":"VEC3"},{"bufferView":1,"componentType":5126,"count":6240,"max":[8.96399974822998,8.663999557495117],"min":[-0.30000001192092896,-2.5],"type":"VEC2"},{"bufferView":2,"componentType":5126,"count":6240,"max":[1,1,1],"min":[-1,-1,-1],"type":"VEC3"},{"bufferView":3,"componentType":5126,"count":5004,"max":[7.019999980926514,6.492000102996826,3.5],"min":[0.4440000057220459,-0.436381459236145,-0.5],"type":"VEC3"},{"bufferView":4,"componentType":5126,"count":5004,"max":[7.019999980926514,6.191999912261963],"min":[-0.30000001192092896,-2.5],"type":"VEC2"},{"bufferView":5,"componentType":5126,"count":5004,"max":[1,1,1],"min":[-1,-1,-1],"type":"VEC3"},{"bufferView":6,"componentType":5126,"count":912,"max":[3.068000078201294,8.96399974822998,3.5],"min":[0.4519999921321869,-0.30000001192092896,-0.5],"type":"VEC3"},{"bufferView":7,"componentType":5126,"count":912,"max":[8.96399974822998,8.663999557495117],"min":[-0.30000001192092896,-2.5],"type":"VEC2"},{"bufferView":8,"componentType":5126,"count":912,"max":[1,1,1],"min":[-1,-1,-1],"type":"VEC3"},{"bufferView":9,"componentType":5126,"count":9816,"max":[6.5920939445495605,6.636240005493164,3.5],"min":[0.12353687733411789,-0.43626293540000916,-0.5],"type":"VEC3"},{"bufferView":10,"componentType":5126,"count":9816,"max":[6.5920939445495605,6.335999965667725],"min":[0.42399999499320984,-2.5],"type":"VEC2"},{"bufferView":11,"componentType":5126,"count":9816,"max":[0.9986522197723389,0.9995388388633728,1],"min":[-0.9985641837120056,-0.9995554685592651,-1],"type":"VEC3"},{"bufferView":12,"componentType":5126,"count":2652,"max":[7.16396951675415,8.96399974822998,3.5],"min":[0.5080000162124634,-0.30000001192092896,-0.5],"type":"VEC3"},{"bufferView":13,"componentType":5126,"count":2652,"max":[8.96399974822998,8.663999557495117],"min":[-0.30000001192092896,-2.5],"type":"VEC2"},{"bufferView":14,"componentType":5126,"count":2652,"max":[1,1,1],"min":[-1,-1,-1],"type":"VEC3"},{"bufferView":15,"componentType":5126,"count":10188,"max":[6.855281829833984,6.6364827156066895,3.5],"min":[0.12360292673110962,-0.4363204538822174,-0.5],"type":"VEC3"},{"bufferView":16,"componentType":5126,"count":10188,"max":[6.80789041519165,6.335999965667725],"min":[0.42399999499320984,-2.5],"type":"VEC2"},{"bufferView":17,"componentType":5126,"count":10188,"max":[1,0.9996562004089355,1],"min":[-0.9999276995658875,-0.9992358088493347,-1],"type":"VEC3"},{"bufferView":18,"componentType":5126,"count":3564,"max":[5.178086280822754,6.6471381187438965,3.5],"min":[0.4519999921321869,-0.30000001192092896,-0.5],"type":"VEC3"},{"bufferView":19,"componentType":5126,"count":3564,"max":[6.6471381187438965,6.335999965667725],"min":[-0.30000001192092896,-2.5],"type":"VEC2"},{"bufferView":20,"componentType":5126,"count":3564,"max":[1,1,1],"min":[-1,-1,-1],"type":"VEC3"},{"bufferView":21,"componentType":5126,"count":4764,"max":[6.831850528717041,6.47599983215332,3.5],"min":[-0.23353996872901917,-2.5663576126098633,-0.5],"type":"VEC3"},{"bufferView":22,"componentType":5126,"count":4764,"max":[6.831850528717041,6.176000118255615],"min":[-2.5663576126098633,-2.5],"type":"VEC2"},{"bufferView":23,"componentType":5126,"count":4764,"max":[0.9866808652877808,0.9993920922279358,1],"min":[-0.9896661639213562,-1,-1],"type":"VEC3"}],"materials":[{"pbrMetallicRoughness":{"metallicFactor":0,"roughnessFactor":0.35},"doubleSided":true,"extensions":{"KHR_materials_transmission":{"transmissionFactor":1},"KHR_materials_volume":{"thicknessFactor":0,"attenuationColor":[1,1,1]}}},{"pbrMetallicRoughness":{"metallicFactor":0,"roughnessFactor":0.35},"doubleSided":true,"extensions":{"KHR_materials_transmission":{"transmissionFactor":1},"KHR_materials_volume":{"thicknessFactor":0,"attenuationColor":[1,1,1]}}},{"pbrMetallicRoughness":{"metallicFactor":0,"roughnessFactor":0.35},"doubleSided":true,"extensions":{"KHR_materials_transmission":{"transmissionFactor":1},"KHR_materials_volume":{"thicknessFactor":0,"attenuationColor":[1,1,1]}}},{"pbrMetallicRoughness":{"metallicFactor":0,"roughnessFactor":0.35},"doubleSided":true,"extensions":{"KHR_materials_transmission":{"transmissionFactor":1},"KHR_materials_volume":{"thicknessFactor":0,"attenuationColor":[1,1,1]}}},{"pbrMetallicRoughness":{"metallicFactor":0,"roughnessFactor":0.35},"doubleSided":true,"extensions":{"KHR_materials_transmission":{"transmissionFactor":1},"KHR_materials_volume":{"thicknessFactor":0,"attenuationColor":[1,1,1]}}},{"pbrMetallicRoughness":{"metallicFactor":0,"roughnessFactor":0.35},"doubleSided":true,"extensions":{"KHR_materials_transmission":{"transmissionFactor":1},"KHR_materials_volume":{"thicknessFactor":0,"attenuationColor":[1,1,1]}}},{"pbrMetallicRoughness":{"metallicFactor":0,"roughnessFactor":0.35},"doubleSided":true,"extensions":{"KHR_materials_transmission":{"transmissionFactor":1},"KHR_materials_volume":{"thicknessFactor":0,"attenuationColor":[1,1,1]}}},{"pbrMetallicRoughness":{"metallicFactor":0,"roughnessFactor":0.35},"doubleSided":true,"extensions":{"KHR_materials_transmission":{"transmissionFactor":1},"KHR_materials_volume":{"thicknessFactor":0,"attenuationColor":[1,1,1]}}}],"meshes":[{"primitives":[{"mode":4,"attributes":{"POSITION":0,"TEXCOORD_0":1,"NORMAL":2},"material":0}]},{"primitives":[{"mode":4,"attributes":{"POSITION":3,"TEXCOORD_0":4,"NORMAL":5},"material":1}]},{"primitives":[{"mode":4,"attributes":{"POSITION":6,"TEXCOORD_0":7,"NORMAL":8},"material":2}]},{"primitives":[{"mode":4,"attributes":{"POSITION":9,"TEXCOORD_0":10,"NORMAL":11},"material":3}]},{"primitives":[{"mode":4,"attributes":{"POSITION":12,"TEXCOORD_0":13,"NORMAL":14},"material":4}]},{"primitives":[{"mode":4,"attributes":{"POSITION":15,"TEXCOORD_0":16,"NORMAL":17},"material":5}]},{"primitives":[{"mode":4,"attributes":{"POSITION":18,"TEXCOORD_0":19,"NORMAL":20},"material":6}]},{"primitives":[{"mode":4,"attributes":{"POSITION":21,"TEXCOORD_0":22,"NORMAL":23},"material":7}]}],"extensionsUsed":["KHR_materials_transmission","KHR_materials_volume"]}